<?xml version="1.0" encoding="UTF-8"?> <svg xmlns="http://www.w3.org/2000/svg" xmlns:xlink="http://www.w3.org/1999/xlink" width="700" viewBox="0 0 525 57.749997" height="77" preserveAspectRatio="xMidYMid meet"><defs><g></g><clipPath id="11945d7c7a"><path d="M 1.132812 0 L 523.867188 0 L 523.867188 57.5 L 1.132812 57.5 Z M 1.132812 0 " clip-rule="nonzero"></path></clipPath><clipPath id="862f271709"><path d="M 46.550781 10.542969 L 79.4375 10.542969 L 79.4375 43.429688 L 46.550781 43.429688 Z M 46.550781 10.542969 " clip-rule="nonzero"></path></clipPath><clipPath id="541cdc83c5"><path d="M 192.824219 10.542969 L 225.710938 10.542969 L 225.710938 43.429688 L 192.824219 43.429688 Z M 192.824219 10.542969 " clip-rule="nonzero"></path></clipPath><clipPath id="1c13bb09b2"><path d="M 342 10.542969 L 361 10.542969 L 361 32 L 342 32 Z M 342 10.542969 " clip-rule="nonzero"></path></clipPath><clipPath id="bea7950505"><path d="M 340.742188 25 L 362.667969 25 L 362.667969 43.429688 L 340.742188 43.429688 Z M 340.742188 25 " clip-rule="nonzero"></path></clipPath></defs><g clip-path="url(#11945d7c7a)"><path fill="#ffffff" d="M 1.132812 0 L 523.867188 0 L 523.867188 64.222656 L 1.132812 64.222656 Z M 1.132812 0 " fill-opacity="1" fill-rule="nonzero"></path><path fill="#ffffff" d="M 1.132812 0 L 523.867188 0 L 523.867188 57.5 L 1.132812 57.5 Z M 1.132812 0 " fill-opacity="1" fill-rule="nonzero"></path><path fill="#000000" d="M 1.132812 0 L 523.867188 0 L 523.867188 57.5 L 1.132812 57.5 Z M 1.132812 0 " fill-opacity="1" fill-rule="nonzero"></path></g><g clip-path="url(#862f271709)"><path fill="#0493b3" d="M 62.992188 10.585938 L 46.550781 16.550781 L 46.550781 25.496094 C 46.550781 33.777344 53.554688 41.5 62.992188 43.386719 C 72.429688 41.5 79.4375 33.777344 79.4375 25.496094 L 79.4375 16.550781 Z M 59.339844 34.441406 L 52.03125 28.476562 L 54.617188 26.367188 L 59.339844 30.222656 L 71.371094 20.402344 L 73.957031 22.511719 Z M 59.339844 34.441406 " fill-opacity="1" fill-rule="nonzero"></path></g><g clip-path="url(#541cdc83c5)"><path fill="#0493b3" d="M 222.269531 42.503906 L 220.839844 42.503906 L 220.839844 34.980469 C 220.839844 34.855469 220.78125 34.746094 220.667969 34.65625 C 220.550781 34.5625 220.410156 34.519531 220.246094 34.519531 L 216.097656 34.519531 C 216.0625 33.824219 215.96875 33.566406 215.691406 33.355469 C 215.414062 33.140625 215.078125 33.03125 214.683594 33.03125 C 214.328125 33.03125 213.984375 32.984375 213.648438 32.894531 C 213.3125 32.808594 213 32.679688 212.71875 32.511719 C 212.4375 32.34375 212.199219 32.144531 212 31.914062 C 211.800781 31.6875 211.65625 31.4375 211.5625 31.171875 C 211.46875 30.90625 211.433594 30.632812 211.453125 30.359375 C 211.472656 30.082031 211.550781 29.816406 211.683594 29.5625 C 211.816406 29.304688 212 29.074219 212.230469 28.863281 C 212.464844 28.652344 212.730469 28.476562 213.035156 28.335938 C 213.035156 28.335938 213.292969 28.242188 213.375 28.203125 C 215.863281 27.191406 217.960938 25.011719 219.402344 22.167969 C 220.328125 21.808594 221.171875 21.355469 221.9375 20.8125 C 222.703125 20.269531 223.359375 19.65625 223.902344 18.972656 C 224.449219 18.289062 224.867188 17.5625 225.152344 16.789062 C 225.4375 16.015625 225.585938 15.226562 225.589844 14.417969 C 225.589844 14.136719 225.519531 13.859375 225.378906 13.597656 C 225.238281 13.335938 225.039062 13.101562 224.78125 12.902344 C 224.523438 12.699219 224.222656 12.542969 223.886719 12.433594 C 223.546875 12.324219 223.195312 12.273438 222.828125 12.273438 L 221.53125 12.273438 L 221.53125 11.015625 C 221.53125 10.886719 221.472656 10.777344 221.355469 10.6875 C 221.242188 10.597656 221.101562 10.554688 220.9375 10.554688 L 197.6875 10.554688 C 197.523438 10.554688 197.382812 10.597656 197.265625 10.6875 C 197.148438 10.777344 197.089844 10.886719 197.089844 11.015625 L 197.089844 12.273438 L 195.664062 12.273438 C 195.296875 12.273438 194.945312 12.328125 194.609375 12.4375 C 194.269531 12.546875 193.972656 12.699219 193.714844 12.902344 C 193.457031 13.101562 193.257812 13.335938 193.117188 13.597656 C 192.976562 13.863281 192.910156 14.136719 192.910156 14.417969 C 192.914062 15.230469 193.058594 16.023438 193.347656 16.800781 C 193.632812 17.578125 194.054688 18.308594 194.601562 18.996094 C 195.152344 19.683594 195.8125 20.300781 196.582031 20.84375 C 197.355469 21.386719 198.207031 21.839844 199.136719 22.195312 C 199.160156 22.207031 199.1875 22.214844 199.214844 22.21875 C 200.640625 25.039062 202.738281 27.195312 205.203125 28.203125 L 205.527344 28.332031 C 205.835938 28.472656 206.109375 28.644531 206.347656 28.851562 C 206.582031 29.0625 206.769531 29.292969 206.90625 29.550781 C 207.042969 29.808594 207.125 30.074219 207.148438 30.351562 C 207.171875 30.628906 207.136719 30.898438 207.046875 31.167969 C 206.953125 31.4375 206.808594 31.6875 206.609375 31.917969 C 206.414062 32.148438 206.171875 32.347656 205.886719 32.515625 C 205.605469 32.6875 205.296875 32.816406 204.957031 32.90625 C 204.617188 32.992188 204.273438 33.039062 203.914062 33.039062 C 203.519531 33.039062 203.183594 33.144531 202.90625 33.363281 C 202.636719 33.574219 202.535156 33.828125 202.5 34.527344 L 198.296875 34.527344 C 198.132812 34.527344 197.992188 34.570312 197.875 34.660156 C 197.757812 34.753906 197.699219 34.863281 197.699219 34.988281 L 197.699219 42.503906 L 196.25 42.503906 C 196.085938 42.503906 195.945312 42.550781 195.828125 42.640625 C 195.710938 42.730469 195.652344 42.839844 195.652344 42.964844 C 195.652344 43.09375 195.710938 43.203125 195.828125 43.292969 C 195.945312 43.382812 196.085938 43.429688 196.25 43.429688 L 222.269531 43.429688 C 222.433594 43.429688 222.574219 43.382812 222.6875 43.292969 C 222.804688 43.203125 222.863281 43.09375 222.863281 42.964844 C 222.863281 42.839844 222.804688 42.730469 222.6875 42.640625 C 222.574219 42.550781 222.433594 42.503906 222.269531 42.503906 Z M 223.933594 13.558594 C 224.246094 13.792969 224.40625 14.082031 224.410156 14.417969 C 224.40625 15.050781 224.304688 15.671875 224.105469 16.285156 C 223.910156 16.894531 223.621094 17.480469 223.238281 18.039062 C 222.859375 18.59375 222.398438 19.109375 221.855469 19.578125 C 221.3125 20.046875 220.707031 20.460938 220.035156 20.816406 C 221.019531 18.332031 221.515625 15.792969 221.527344 13.199219 L 222.824219 13.199219 C 223.261719 13.195312 223.628906 13.316406 223.933594 13.558594 Z M 216.425781 18.796875 C 217.179688 16.902344 217.480469 14.96875 217.332031 12.988281 C 217.316406 12.863281 217.359375 12.75 217.460938 12.648438 C 217.5625 12.550781 217.695312 12.492188 217.855469 12.480469 C 218.019531 12.460938 218.167969 12.496094 218.296875 12.574219 C 218.425781 12.65625 218.496094 12.757812 218.515625 12.886719 C 218.691406 14.992188 218.371094 17.046875 217.5625 19.058594 C 217.476562 19.28125 217.289062 19.390625 216.992188 19.394531 C 216.933594 19.390625 216.878906 19.386719 216.824219 19.375 C 216.667969 19.335938 216.550781 19.261719 216.472656 19.148438 C 216.394531 19.039062 216.378906 18.917969 216.425781 18.796875 Z M 216.398438 19.925781 C 216.558594 19.929688 216.699219 19.972656 216.816406 20.066406 C 216.929688 20.15625 216.988281 20.265625 216.988281 20.390625 C 216.984375 20.519531 216.925781 20.628906 216.8125 20.71875 C 216.695312 20.808594 216.554688 20.851562 216.390625 20.851562 C 216.226562 20.851562 216.085938 20.808594 215.96875 20.714844 C 215.855469 20.625 215.796875 20.515625 215.796875 20.390625 C 215.796875 20.261719 215.855469 20.152344 215.972656 20.058594 C 216.09375 19.96875 216.234375 19.925781 216.402344 19.925781 Z M 194.113281 14.417969 C 194.113281 14.257812 194.152344 14.101562 194.234375 13.953125 C 194.3125 13.804688 194.425781 13.671875 194.570312 13.558594 C 194.71875 13.445312 194.886719 13.355469 195.078125 13.292969 C 195.269531 13.230469 195.46875 13.199219 195.679688 13.199219 L 197.105469 13.199219 C 197.121094 15.816406 197.632812 18.378906 198.632812 20.882812 C 197.941406 20.53125 197.316406 20.117188 196.757812 19.648438 C 196.199219 19.175781 195.722656 18.65625 195.328125 18.09375 C 194.933594 17.53125 194.632812 16.9375 194.429688 16.316406 C 194.222656 15.695312 194.117188 15.0625 194.113281 14.417969 Z M 205.105469 15.839844 L 204.1875 15.320312 C 203.953125 15.195312 203.71875 15.195312 203.488281 15.320312 L 202.574219 15.839844 L 202.574219 11.480469 L 205.105469 11.480469 Z M 198.871094 42.503906 L 198.871094 35.445312 L 219.628906 35.445312 L 219.628906 42.503906 Z M 198.871094 42.503906 " fill-opacity="1" fill-rule="nonzero"></path></g><path fill="#0493b3" d="M 202.964844 37.164062 L 215.761719 37.164062 C 215.929688 37.164062 216.066406 37.207031 216.183594 37.296875 C 216.300781 37.390625 216.359375 37.5 216.359375 37.625 L 216.359375 40.324219 C 216.359375 40.453125 216.300781 40.5625 216.183594 40.652344 C 216.066406 40.742188 215.929688 40.789062 215.761719 40.789062 L 202.964844 40.789062 C 202.800781 40.789062 202.660156 40.742188 202.542969 40.652344 C 202.425781 40.5625 202.367188 40.453125 202.367188 40.324219 L 202.367188 37.625 C 202.367188 37.5 202.425781 37.390625 202.542969 37.296875 C 202.660156 37.207031 202.800781 37.164062 202.964844 37.164062 Z M 202.964844 37.164062 " fill-opacity="1" fill-rule="nonzero"></path><g clip-path="url(#1c13bb09b2)"><path fill="#0493b3" d="M 351.703125 10.566406 C 346.5625 10.566406 342.425781 14.929688 342.425781 20.351562 L 342.425781 31.222656 L 345.003906 31.222656 L 345.003906 20.351562 C 345.003906 16.4375 347.992188 13.285156 351.703125 13.285156 C 355.417969 13.285156 358.40625 16.4375 358.40625 20.351562 L 358.40625 31.222656 L 360.984375 31.222656 L 360.984375 20.351562 C 360.984375 14.929688 356.847656 10.566406 351.703125 10.566406 Z M 351.703125 10.566406 " fill-opacity="1" fill-rule="evenodd"></path></g><g clip-path="url(#bea7950505)"><path fill="#0493b3" d="M 340.871094 25.515625 L 362.539062 25.515625 C 362.625 25.515625 362.667969 25.5625 362.667969 25.652344 L 362.667969 43.273438 C 362.667969 43.363281 362.625 43.410156 362.539062 43.410156 L 340.871094 43.410156 C 340.785156 43.410156 340.742188 43.363281 340.742188 43.273438 L 340.742188 25.652344 C 340.742188 25.5625 340.785156 25.515625 340.871094 25.515625 " fill-opacity="1" fill-rule="evenodd"></path></g><g fill="#ffffff" fill-opacity="1"><g transform="translate(87.215393, 25.686705)"><g><path d="M 5.1875 0.171875 C 4.28125 0.171875 3.40625 0.046875 2.5625 -0.203125 C 1.726562 -0.460938 1.066406 -0.804688 0.578125 -1.234375 L 1.328125 -2.921875 C 1.804688 -2.535156 2.390625 -2.222656 3.078125 -1.984375 C 3.773438 -1.742188 4.476562 -1.625 5.1875 -1.625 C 6.050781 -1.625 6.695312 -1.765625 7.125 -2.046875 C 7.550781 -2.328125 7.765625 -2.691406 7.765625 -3.140625 C 7.765625 -3.472656 7.644531 -3.75 7.40625 -3.96875 C 7.164062 -4.1875 6.863281 -4.351562 6.5 -4.46875 C 6.132812 -4.59375 5.632812 -4.734375 5 -4.890625 C 4.113281 -5.109375 3.394531 -5.320312 2.84375 -5.53125 C 2.289062 -5.738281 1.816406 -6.066406 1.421875 -6.515625 C 1.023438 -6.972656 0.828125 -7.582031 0.828125 -8.34375 C 0.828125 -8.988281 1 -9.570312 1.34375 -10.09375 C 1.695312 -10.625 2.226562 -11.046875 2.9375 -11.359375 C 3.644531 -11.671875 4.507812 -11.828125 5.53125 -11.828125 C 6.238281 -11.828125 6.9375 -11.738281 7.625 -11.5625 C 8.3125 -11.382812 8.90625 -11.128906 9.40625 -10.796875 L 8.734375 -9.109375 C 8.222656 -9.410156 7.6875 -9.640625 7.125 -9.796875 C 6.570312 -9.953125 6.035156 -10.03125 5.515625 -10.03125 C 4.660156 -10.03125 4.023438 -9.882812 3.609375 -9.59375 C 3.191406 -9.300781 2.984375 -8.914062 2.984375 -8.4375 C 2.984375 -8.101562 3.101562 -7.832031 3.34375 -7.625 C 3.582031 -7.414062 3.882812 -7.25 4.25 -7.125 C 4.613281 -7.007812 5.113281 -6.875 5.75 -6.71875 C 6.613281 -6.507812 7.320312 -6.296875 7.875 -6.078125 C 8.4375 -5.867188 8.910156 -5.539062 9.296875 -5.09375 C 9.691406 -4.65625 9.890625 -4.054688 9.890625 -3.296875 C 9.890625 -2.648438 9.710938 -2.066406 9.359375 -1.546875 C 9.015625 -1.023438 8.488281 -0.609375 7.78125 -0.296875 C 7.070312 0.015625 6.207031 0.171875 5.1875 0.171875 Z M 5.1875 0.171875 "></path></g></g></g><g fill="#ffffff" fill-opacity="1"><g transform="translate(97.854802, 25.686705)"><g><path d="M 1.359375 -8.890625 L 3.453125 -8.890625 L 3.453125 0 L 1.359375 0 Z M 2.40625 -10.359375 C 2.03125 -10.359375 1.710938 -10.476562 1.453125 -10.71875 C 1.203125 -10.957031 1.078125 -11.253906 1.078125 -11.609375 C 1.078125 -11.960938 1.203125 -12.257812 1.453125 -12.5 C 1.710938 -12.738281 2.03125 -12.859375 2.40625 -12.859375 C 2.78125 -12.859375 3.09375 -12.742188 3.34375 -12.515625 C 3.601562 -12.285156 3.734375 -12 3.734375 -11.65625 C 3.734375 -11.289062 3.609375 -10.984375 3.359375 -10.734375 C 3.117188 -10.484375 2.800781 -10.359375 2.40625 -10.359375 Z M 2.40625 -10.359375 "></path></g></g></g><g fill="#ffffff" fill-opacity="1"><g transform="translate(102.833285, 25.686705)"><g><path d="M 6.71875 -0.484375 C 6.46875 -0.285156 6.164062 -0.132812 5.8125 -0.03125 C 5.46875 0.0625 5.101562 0.109375 4.71875 0.109375 C 3.738281 0.109375 2.984375 -0.144531 2.453125 -0.65625 C 1.921875 -1.164062 1.65625 -1.90625 1.65625 -2.875 L 1.65625 -7.15625 L 0.1875 -7.15625 L 0.1875 -8.828125 L 1.65625 -8.828125 L 1.65625 -10.859375 L 3.734375 -10.859375 L 3.734375 -8.828125 L 6.109375 -8.828125 L 6.109375 -7.15625 L 3.734375 -7.15625 L 3.734375 -2.9375 C 3.734375 -2.5 3.835938 -2.164062 4.046875 -1.9375 C 4.253906 -1.707031 4.5625 -1.59375 4.96875 -1.59375 C 5.425781 -1.59375 5.8125 -1.71875 6.125 -1.96875 Z M 6.71875 -0.484375 "></path></g></g></g><g fill="#ffffff" fill-opacity="1"><g transform="translate(110.059483, 25.686705)"><g><path d="M 9.734375 -4.390625 C 9.734375 -4.253906 9.71875 -4.050781 9.6875 -3.78125 L 2.71875 -3.78125 C 2.832031 -3.125 3.148438 -2.601562 3.671875 -2.21875 C 4.191406 -1.84375 4.832031 -1.65625 5.59375 -1.65625 C 6.570312 -1.65625 7.378906 -1.972656 8.015625 -2.609375 L 9.125 -1.328125 C 8.726562 -0.847656 8.222656 -0.488281 7.609375 -0.25 C 7.003906 -0.0078125 6.316406 0.109375 5.546875 0.109375 C 4.566406 0.109375 3.703125 -0.0820312 2.953125 -0.46875 C 2.210938 -0.851562 1.640625 -1.390625 1.234375 -2.078125 C 0.835938 -2.773438 0.640625 -3.566406 0.640625 -4.453125 C 0.640625 -5.316406 0.832031 -6.09375 1.21875 -6.78125 C 1.613281 -7.476562 2.160156 -8.019531 2.859375 -8.40625 C 3.566406 -8.800781 4.359375 -9 5.234375 -9 C 6.097656 -9 6.867188 -8.804688 7.546875 -8.421875 C 8.234375 -8.035156 8.769531 -7.492188 9.15625 -6.796875 C 9.539062 -6.109375 9.734375 -5.304688 9.734375 -4.390625 Z M 5.234375 -7.328125 C 4.566406 -7.328125 4 -7.128906 3.53125 -6.734375 C 3.070312 -6.335938 2.796875 -5.8125 2.703125 -5.15625 L 7.75 -5.15625 C 7.65625 -5.800781 7.378906 -6.320312 6.921875 -6.71875 C 6.472656 -7.125 5.910156 -7.328125 5.234375 -7.328125 Z M 5.234375 -7.328125 "></path></g></g></g><g fill="#ffffff" fill-opacity="1"><g transform="translate(87.215393, 41.691568)"><g><path d="M 5.1875 0.171875 C 4.28125 0.171875 3.40625 0.046875 2.5625 -0.203125 C 1.726562 -0.460938 1.066406 -0.804688 0.578125 -1.234375 L 1.328125 -2.921875 C 1.804688 -2.535156 2.390625 -2.222656 3.078125 -1.984375 C 3.773438 -1.742188 4.476562 -1.625 5.1875 -1.625 C 6.050781 -1.625 6.695312 -1.765625 7.125 -2.046875 C 7.550781 -2.328125 7.765625 -2.691406 7.765625 -3.140625 C 7.765625 -3.472656 7.644531 -3.75 7.40625 -3.96875 C 7.164062 -4.1875 6.863281 -4.351562 6.5 -4.46875 C 6.132812 -4.59375 5.632812 -4.734375 5 -4.890625 C 4.113281 -5.109375 3.394531 -5.320312 2.84375 -5.53125 C 2.289062 -5.738281 1.816406 -6.066406 1.421875 -6.515625 C 1.023438 -6.972656 0.828125 -7.582031 0.828125 -8.34375 C 0.828125 -8.988281 1 -9.570312 1.34375 -10.09375 C 1.695312 -10.625 2.226562 -11.046875 2.9375 -11.359375 C 3.644531 -11.671875 4.507812 -11.828125 5.53125 -11.828125 C 6.238281 -11.828125 6.9375 -11.738281 7.625 -11.5625 C 8.3125 -11.382812 8.90625 -11.128906 9.40625 -10.796875 L 8.734375 -9.109375 C 8.222656 -9.410156 7.6875 -9.640625 7.125 -9.796875 C 6.570312 -9.953125 6.035156 -10.03125 5.515625 -10.03125 C 4.660156 -10.03125 4.023438 -9.882812 3.609375 -9.59375 C 3.191406 -9.300781 2.984375 -8.914062 2.984375 -8.4375 C 2.984375 -8.101562 3.101562 -7.832031 3.34375 -7.625 C 3.582031 -7.414062 3.882812 -7.25 4.25 -7.125 C 4.613281 -7.007812 5.113281 -6.875 5.75 -6.71875 C 6.613281 -6.507812 7.320312 -6.296875 7.875 -6.078125 C 8.4375 -5.867188 8.910156 -5.539062 9.296875 -5.09375 C 9.691406 -4.65625 9.890625 -4.054688 9.890625 -3.296875 C 9.890625 -2.648438 9.710938 -2.066406 9.359375 -1.546875 C 9.015625 -1.023438 8.488281 -0.609375 7.78125 -0.296875 C 7.070312 0.015625 6.207031 0.171875 5.1875 0.171875 Z M 5.1875 0.171875 "></path></g></g></g><g fill="#ffffff" fill-opacity="1"><g transform="translate(97.854802, 41.691568)"><g><path d="M 9.734375 -4.390625 C 9.734375 -4.253906 9.71875 -4.050781 9.6875 -3.78125 L 2.71875 -3.78125 C 2.832031 -3.125 3.148438 -2.601562 3.671875 -2.21875 C 4.191406 -1.84375 4.832031 -1.65625 5.59375 -1.65625 C 6.570312 -1.65625 7.378906 -1.972656 8.015625 -2.609375 L 9.125 -1.328125 C 8.726562 -0.847656 8.222656 -0.488281 7.609375 -0.25 C 7.003906 -0.0078125 6.316406 0.109375 5.546875 0.109375 C 4.566406 0.109375 3.703125 -0.0820312 2.953125 -0.46875 C 2.210938 -0.851562 1.640625 -1.390625 1.234375 -2.078125 C 0.835938 -2.773438 0.640625 -3.566406 0.640625 -4.453125 C 0.640625 -5.316406 0.832031 -6.09375 1.21875 -6.78125 C 1.613281 -7.476562 2.160156 -8.019531 2.859375 -8.40625 C 3.566406 -8.800781 4.359375 -9 5.234375 -9 C 6.097656 -9 6.867188 -8.804688 7.546875 -8.421875 C 8.234375 -8.035156 8.769531 -7.492188 9.15625 -6.796875 C 9.539062 -6.109375 9.734375 -5.304688 9.734375 -4.390625 Z M 5.234375 -7.328125 C 4.566406 -7.328125 4 -7.128906 3.53125 -6.734375 C 3.070312 -6.335938 2.796875 -5.8125 2.703125 -5.15625 L 7.75 -5.15625 C 7.65625 -5.800781 7.378906 -6.320312 6.921875 -6.71875 C 6.472656 -7.125 5.910156 -7.328125 5.234375 -7.328125 Z M 5.234375 -7.328125 "></path></g></g></g><g fill="#ffffff" fill-opacity="1"><g transform="translate(108.377669, 41.691568)"><g><path d="M 10.1875 -8.890625 L 10.1875 -1.34375 C 10.1875 1.78125 8.585938 3.34375 5.390625 3.34375 C 4.535156 3.34375 3.722656 3.234375 2.953125 3.015625 C 2.191406 2.804688 1.5625 2.492188 1.0625 2.078125 L 2 0.515625 C 2.382812 0.835938 2.875 1.09375 3.46875 1.28125 C 4.0625 1.476562 4.664062 1.578125 5.28125 1.578125 C 6.257812 1.578125 6.972656 1.351562 7.421875 0.90625 C 7.878906 0.46875 8.109375 -0.203125 8.109375 -1.109375 L 8.109375 -1.578125 C 7.753906 -1.191406 7.320312 -0.898438 6.8125 -0.703125 C 6.300781 -0.503906 5.738281 -0.40625 5.125 -0.40625 C 4.28125 -0.40625 3.515625 -0.582031 2.828125 -0.9375 C 2.148438 -1.300781 1.613281 -1.8125 1.21875 -2.46875 C 0.832031 -3.125 0.640625 -3.875 0.640625 -4.71875 C 0.640625 -5.5625 0.832031 -6.304688 1.21875 -6.953125 C 1.613281 -7.597656 2.148438 -8.097656 2.828125 -8.453125 C 3.515625 -8.816406 4.28125 -9 5.125 -9 C 5.769531 -9 6.351562 -8.890625 6.875 -8.671875 C 7.40625 -8.460938 7.851562 -8.144531 8.21875 -7.71875 L 8.21875 -8.890625 Z M 5.453125 -2.171875 C 6.234375 -2.171875 6.875 -2.40625 7.375 -2.875 C 7.882812 -3.34375 8.140625 -3.957031 8.140625 -4.71875 C 8.140625 -5.457031 7.882812 -6.0625 7.375 -6.53125 C 6.875 -7 6.234375 -7.234375 5.453125 -7.234375 C 4.648438 -7.234375 3.992188 -7 3.484375 -6.53125 C 2.984375 -6.0625 2.734375 -5.457031 2.734375 -4.71875 C 2.734375 -3.957031 2.984375 -3.34375 3.484375 -2.875 C 3.992188 -2.40625 4.648438 -2.171875 5.453125 -2.171875 Z M 5.453125 -2.171875 "></path></g></g></g><g fill="#ffffff" fill-opacity="1"><g transform="translate(120.099309, 41.691568)"><g><path d="M 9.984375 -8.890625 L 9.984375 0 L 8 0 L 8 -1.125 C 7.664062 -0.726562 7.25 -0.421875 6.75 -0.203125 C 6.25 0.00390625 5.707031 0.109375 5.125 0.109375 C 3.9375 0.109375 3 -0.21875 2.3125 -0.875 C 1.632812 -1.53125 1.296875 -2.507812 1.296875 -3.8125 L 1.296875 -8.890625 L 3.375 -8.890625 L 3.375 -4.09375 C 3.375 -3.289062 3.554688 -2.691406 3.921875 -2.296875 C 4.285156 -1.910156 4.800781 -1.71875 5.46875 -1.71875 C 6.207031 -1.71875 6.796875 -1.945312 7.234375 -2.40625 C 7.671875 -2.863281 7.890625 -3.523438 7.890625 -4.390625 L 7.890625 -8.890625 Z M 9.984375 -8.890625 "></path></g></g></g><g fill="#ffffff" fill-opacity="1"><g transform="translate(131.60451, 41.691568)"><g><path d="M 3.34375 -7.59375 C 3.945312 -8.53125 5.003906 -9 6.515625 -9 L 6.515625 -7.015625 C 6.335938 -7.046875 6.175781 -7.0625 6.03125 -7.0625 C 5.21875 -7.0625 4.582031 -6.820312 4.125 -6.34375 C 3.675781 -5.875 3.453125 -5.195312 3.453125 -4.3125 L 3.453125 0 L 1.359375 0 L 1.359375 -8.890625 L 3.34375 -8.890625 Z M 3.34375 -7.59375 "></path></g></g></g><g fill="#ffffff" fill-opacity="1"><g transform="translate(138.764115, 41.691568)"><g><path d="M 5.359375 0.109375 C 4.460938 0.109375 3.648438 -0.0820312 2.921875 -0.46875 C 2.203125 -0.851562 1.640625 -1.390625 1.234375 -2.078125 C 0.835938 -2.773438 0.640625 -3.566406 0.640625 -4.453125 C 0.640625 -5.328125 0.835938 -6.109375 1.234375 -6.796875 C 1.640625 -7.484375 2.203125 -8.019531 2.921875 -8.40625 C 3.648438 -8.800781 4.460938 -9 5.359375 -9 C 6.273438 -9 7.09375 -8.800781 7.8125 -8.40625 C 8.53125 -8.019531 9.09375 -7.484375 9.5 -6.796875 C 9.90625 -6.109375 10.109375 -5.328125 10.109375 -4.453125 C 10.109375 -3.566406 9.90625 -2.773438 9.5 -2.078125 C 9.09375 -1.390625 8.53125 -0.851562 7.8125 -0.46875 C 7.09375 -0.0820312 6.273438 0.109375 5.359375 0.109375 Z M 5.359375 -1.671875 C 6.128906 -1.671875 6.765625 -1.925781 7.265625 -2.4375 C 7.765625 -2.945312 8.015625 -3.617188 8.015625 -4.453125 C 8.015625 -5.285156 7.765625 -5.957031 7.265625 -6.46875 C 6.765625 -6.976562 6.128906 -7.234375 5.359375 -7.234375 C 4.597656 -7.234375 3.96875 -6.976562 3.46875 -6.46875 C 2.976562 -5.957031 2.734375 -5.285156 2.734375 -4.453125 C 2.734375 -3.617188 2.976562 -2.945312 3.46875 -2.4375 C 3.96875 -1.925781 4.597656 -1.671875 5.359375 -1.671875 Z M 5.359375 -1.671875 "></path></g></g></g><g fill="#ffffff" fill-opacity="1"><g transform="translate(231.186044, 25.686699)"><g><path d="M 5.1875 0.171875 C 4.28125 0.171875 3.40625 0.046875 2.5625 -0.203125 C 1.726562 -0.460938 1.066406 -0.804688 0.578125 -1.234375 L 1.328125 -2.921875 C 1.804688 -2.535156 2.390625 -2.222656 3.078125 -1.984375 C 3.773438 -1.742188 4.476562 -1.625 5.1875 -1.625 C 6.050781 -1.625 6.695312 -1.765625 7.125 -2.046875 C 7.550781 -2.328125 7.765625 -2.691406 7.765625 -3.140625 C 7.765625 -3.472656 7.644531 -3.75 7.40625 -3.96875 C 7.164062 -4.1875 6.863281 -4.351562 6.5 -4.46875 C 6.132812 -4.59375 5.632812 -4.734375 5 -4.890625 C 4.113281 -5.109375 3.394531 -5.320312 2.84375 -5.53125 C 2.289062 -5.738281 1.816406 -6.066406 1.421875 -6.515625 C 1.023438 -6.972656 0.828125 -7.582031 0.828125 -8.34375 C 0.828125 -8.988281 1 -9.570312 1.34375 -10.09375 C 1.695312 -10.625 2.226562 -11.046875 2.9375 -11.359375 C 3.644531 -11.671875 4.507812 -11.828125 5.53125 -11.828125 C 6.238281 -11.828125 6.9375 -11.738281 7.625 -11.5625 C 8.3125 -11.382812 8.90625 -11.128906 9.40625 -10.796875 L 8.734375 -9.109375 C 8.222656 -9.410156 7.6875 -9.640625 7.125 -9.796875 C 6.570312 -9.953125 6.035156 -10.03125 5.515625 -10.03125 C 4.660156 -10.03125 4.023438 -9.882812 3.609375 -9.59375 C 3.191406 -9.300781 2.984375 -8.914062 2.984375 -8.4375 C 2.984375 -8.101562 3.101562 -7.832031 3.34375 -7.625 C 3.582031 -7.414062 3.882812 -7.25 4.25 -7.125 C 4.613281 -7.007812 5.113281 -6.875 5.75 -6.71875 C 6.613281 -6.507812 7.320312 -6.296875 7.875 -6.078125 C 8.4375 -5.867188 8.910156 -5.539062 9.296875 -5.09375 C 9.691406 -4.65625 9.890625 -4.054688 9.890625 -3.296875 C 9.890625 -2.648438 9.710938 -2.066406 9.359375 -1.546875 C 9.015625 -1.023438 8.488281 -0.609375 7.78125 -0.296875 C 7.070312 0.015625 6.207031 0.171875 5.1875 0.171875 Z M 5.1875 0.171875 "></path></g></g></g><g fill="#ffffff" fill-opacity="1"><g transform="translate(241.825452, 25.686699)"><g><path d="M 4.765625 -9 C 6.078125 -9 7.078125 -8.679688 7.765625 -8.046875 C 8.460938 -7.421875 8.8125 -6.476562 8.8125 -5.21875 L 8.8125 0 L 6.84375 0 L 6.84375 -1.078125 C 6.59375 -0.691406 6.226562 -0.394531 5.75 -0.1875 C 5.28125 0.0078125 4.710938 0.109375 4.046875 0.109375 C 3.378906 0.109375 2.796875 0 2.296875 -0.21875 C 1.796875 -0.445312 1.410156 -0.765625 1.140625 -1.171875 C 0.867188 -1.578125 0.734375 -2.035156 0.734375 -2.546875 C 0.734375 -3.347656 1.03125 -3.988281 1.625 -4.46875 C 2.21875 -4.957031 3.15625 -5.203125 4.4375 -5.203125 L 6.734375 -5.203125 L 6.734375 -5.328125 C 6.734375 -5.953125 6.546875 -6.429688 6.171875 -6.765625 C 5.796875 -7.097656 5.242188 -7.265625 4.515625 -7.265625 C 4.015625 -7.265625 3.519531 -7.1875 3.03125 -7.03125 C 2.550781 -6.875 2.144531 -6.65625 1.8125 -6.375 L 1 -7.890625 C 1.46875 -8.242188 2.03125 -8.515625 2.6875 -8.703125 C 3.34375 -8.898438 4.035156 -9 4.765625 -9 Z M 4.484375 -1.40625 C 5.003906 -1.40625 5.46875 -1.519531 5.875 -1.75 C 6.28125 -1.988281 6.566406 -2.332031 6.734375 -2.78125 L 6.734375 -3.8125 L 4.578125 -3.8125 C 3.378906 -3.8125 2.78125 -3.414062 2.78125 -2.625 C 2.78125 -2.25 2.929688 -1.953125 3.234375 -1.734375 C 3.535156 -1.515625 3.953125 -1.40625 4.484375 -1.40625 Z M 4.484375 -1.40625 "></path></g></g></g><g fill="#ffffff" fill-opacity="1"><g transform="translate(252.098563, 25.686699)"><g><path d="M 6.71875 -0.484375 C 6.46875 -0.285156 6.164062 -0.132812 5.8125 -0.03125 C 5.46875 0.0625 5.101562 0.109375 4.71875 0.109375 C 3.738281 0.109375 2.984375 -0.144531 2.453125 -0.65625 C 1.921875 -1.164062 1.65625 -1.90625 1.65625 -2.875 L 1.65625 -7.15625 L 0.1875 -7.15625 L 0.1875 -8.828125 L 1.65625 -8.828125 L 1.65625 -10.859375 L 3.734375 -10.859375 L 3.734375 -8.828125 L 6.109375 -8.828125 L 6.109375 -7.15625 L 3.734375 -7.15625 L 3.734375 -2.9375 C 3.734375 -2.5 3.835938 -2.164062 4.046875 -1.9375 C 4.253906 -1.707031 4.5625 -1.59375 4.96875 -1.59375 C 5.425781 -1.59375 5.8125 -1.71875 6.125 -1.96875 Z M 6.71875 -0.484375 "></path></g></g></g><g fill="#ffffff" fill-opacity="1"><g transform="translate(259.324759, 25.686699)"><g><path d="M 1.359375 -8.890625 L 3.453125 -8.890625 L 3.453125 0 L 1.359375 0 Z M 2.40625 -10.359375 C 2.03125 -10.359375 1.710938 -10.476562 1.453125 -10.71875 C 1.203125 -10.957031 1.078125 -11.253906 1.078125 -11.609375 C 1.078125 -11.960938 1.203125 -12.257812 1.453125 -12.5 C 1.710938 -12.738281 2.03125 -12.859375 2.40625 -12.859375 C 2.78125 -12.859375 3.09375 -12.742188 3.34375 -12.515625 C 3.601562 -12.285156 3.734375 -12 3.734375 -11.65625 C 3.734375 -11.289062 3.609375 -10.984375 3.359375 -10.734375 C 3.117188 -10.484375 2.800781 -10.359375 2.40625 -10.359375 Z M 2.40625 -10.359375 "></path></g></g></g><g fill="#ffffff" fill-opacity="1"><g transform="translate(264.303242, 25.686699)"><g><path d="M 4.109375 0.109375 C 3.390625 0.109375 2.6875 0.015625 2 -0.171875 C 1.3125 -0.359375 0.757812 -0.59375 0.34375 -0.875 L 1.15625 -2.46875 C 1.550781 -2.195312 2.03125 -1.976562 2.59375 -1.8125 C 3.15625 -1.65625 3.707031 -1.578125 4.25 -1.578125 C 5.488281 -1.578125 6.109375 -1.90625 6.109375 -2.5625 C 6.109375 -2.875 5.945312 -3.085938 5.625 -3.203125 C 5.3125 -3.328125 4.804688 -3.445312 4.109375 -3.5625 C 3.378906 -3.675781 2.78125 -3.800781 2.3125 -3.9375 C 1.851562 -4.082031 1.453125 -4.335938 1.109375 -4.703125 C 0.773438 -5.066406 0.609375 -5.570312 0.609375 -6.21875 C 0.609375 -7.0625 0.960938 -7.734375 1.671875 -8.234375 C 2.378906 -8.742188 3.332031 -9 4.53125 -9 C 5.144531 -9 5.753906 -8.925781 6.359375 -8.78125 C 6.972656 -8.644531 7.472656 -8.460938 7.859375 -8.234375 L 7.0625 -6.640625 C 6.300781 -7.085938 5.453125 -7.3125 4.515625 -7.3125 C 3.898438 -7.3125 3.429688 -7.21875 3.109375 -7.03125 C 2.796875 -6.851562 2.640625 -6.613281 2.640625 -6.3125 C 2.640625 -5.976562 2.8125 -5.738281 3.15625 -5.59375 C 3.5 -5.457031 4.023438 -5.332031 4.734375 -5.21875 C 5.441406 -5.101562 6.019531 -4.972656 6.46875 -4.828125 C 6.925781 -4.679688 7.316406 -4.4375 7.640625 -4.09375 C 7.972656 -3.75 8.140625 -3.257812 8.140625 -2.625 C 8.140625 -1.789062 7.78125 -1.125 7.0625 -0.625 C 6.34375 -0.132812 5.359375 0.109375 4.109375 0.109375 Z M 4.109375 0.109375 "></path></g></g></g><g fill="#ffffff" fill-opacity="1"><g transform="translate(273.044575, 25.686699)"><g><path d="M 4.984375 -10.796875 C 4.109375 -10.796875 3.671875 -10.316406 3.671875 -9.359375 L 3.671875 -8.828125 L 6.109375 -8.828125 L 6.109375 -7.15625 L 3.734375 -7.15625 L 3.734375 0 L 1.65625 0 L 1.65625 -7.15625 L 0.1875 -7.15625 L 0.1875 -8.828125 L 1.65625 -8.828125 L 1.65625 -9.390625 C 1.65625 -10.347656 1.929688 -11.097656 2.484375 -11.640625 C 3.035156 -12.191406 3.816406 -12.46875 4.828125 -12.46875 C 5.628906 -12.46875 6.257812 -12.3125 6.71875 -12 L 6.125 -10.421875 C 5.769531 -10.671875 5.390625 -10.796875 4.984375 -10.796875 Z M 4.984375 -10.796875 "></path></g></g></g><g fill="#ffffff" fill-opacity="1"><g transform="translate(279.355044, 25.686699)"><g><path d="M 4.765625 -9 C 6.078125 -9 7.078125 -8.679688 7.765625 -8.046875 C 8.460938 -7.421875 8.8125 -6.476562 8.8125 -5.21875 L 8.8125 0 L 6.84375 0 L 6.84375 -1.078125 C 6.59375 -0.691406 6.226562 -0.394531 5.75 -0.1875 C 5.28125 0.0078125 4.710938 0.109375 4.046875 0.109375 C 3.378906 0.109375 2.796875 0 2.296875 -0.21875 C 1.796875 -0.445312 1.410156 -0.765625 1.140625 -1.171875 C 0.867188 -1.578125 0.734375 -2.035156 0.734375 -2.546875 C 0.734375 -3.347656 1.03125 -3.988281 1.625 -4.46875 C 2.21875 -4.957031 3.15625 -5.203125 4.4375 -5.203125 L 6.734375 -5.203125 L 6.734375 -5.328125 C 6.734375 -5.953125 6.546875 -6.429688 6.171875 -6.765625 C 5.796875 -7.097656 5.242188 -7.265625 4.515625 -7.265625 C 4.015625 -7.265625 3.519531 -7.1875 3.03125 -7.03125 C 2.550781 -6.875 2.144531 -6.65625 1.8125 -6.375 L 1 -7.890625 C 1.46875 -8.242188 2.03125 -8.515625 2.6875 -8.703125 C 3.34375 -8.898438 4.035156 -9 4.765625 -9 Z M 4.484375 -1.40625 C 5.003906 -1.40625 5.46875 -1.519531 5.875 -1.75 C 6.28125 -1.988281 6.566406 -2.332031 6.734375 -2.78125 L 6.734375 -3.8125 L 4.578125 -3.8125 C 3.378906 -3.8125 2.78125 -3.414062 2.78125 -2.625 C 2.78125 -2.25 2.929688 -1.953125 3.234375 -1.734375 C 3.535156 -1.515625 3.953125 -1.40625 4.484375 -1.40625 Z M 4.484375 -1.40625 "></path></g></g></g><g fill="#ffffff" fill-opacity="1"><g transform="translate(289.628156, 25.686699)"><g><path d="M 5.453125 0.109375 C 4.523438 0.109375 3.691406 -0.0820312 2.953125 -0.46875 C 2.222656 -0.851562 1.65625 -1.390625 1.25 -2.078125 C 0.84375 -2.773438 0.640625 -3.566406 0.640625 -4.453125 C 0.640625 -5.328125 0.84375 -6.109375 1.25 -6.796875 C 1.65625 -7.484375 2.222656 -8.019531 2.953125 -8.40625 C 3.679688 -8.800781 4.515625 -9 5.453125 -9 C 6.328125 -9 7.09375 -8.816406 7.75 -8.453125 C 8.414062 -8.097656 8.914062 -7.585938 9.25 -6.921875 L 7.640625 -6 C 7.390625 -6.40625 7.070312 -6.710938 6.6875 -6.921875 C 6.300781 -7.128906 5.882812 -7.234375 5.4375 -7.234375 C 4.65625 -7.234375 4.007812 -6.976562 3.5 -6.46875 C 2.988281 -5.96875 2.734375 -5.296875 2.734375 -4.453125 C 2.734375 -3.609375 2.984375 -2.929688 3.484375 -2.421875 C 3.992188 -1.921875 4.644531 -1.671875 5.4375 -1.671875 C 5.882812 -1.671875 6.300781 -1.769531 6.6875 -1.96875 C 7.070312 -2.175781 7.390625 -2.484375 7.640625 -2.890625 L 9.25 -1.96875 C 8.90625 -1.300781 8.398438 -0.785156 7.734375 -0.421875 C 7.078125 -0.0664062 6.316406 0.109375 5.453125 0.109375 Z M 4.578125 3.796875 C 3.984375 3.796875 3.472656 3.679688 3.046875 3.453125 L 3.4375 2.46875 C 3.78125 2.644531 4.15625 2.734375 4.5625 2.734375 C 5.15625 2.734375 5.453125 2.53125 5.453125 2.125 C 5.453125 1.957031 5.378906 1.820312 5.234375 1.71875 C 5.085938 1.625 4.863281 1.578125 4.5625 1.578125 L 4.046875 1.578125 L 4.5 -0.109375 L 5.625 -0.109375 L 5.40625 0.8125 C 5.875 0.875 6.226562 1.03125 6.46875 1.28125 C 6.71875 1.53125 6.84375 1.84375 6.84375 2.21875 C 6.84375 2.695312 6.632812 3.078125 6.21875 3.359375 C 5.8125 3.648438 5.265625 3.796875 4.578125 3.796875 Z M 4.578125 3.796875 "></path></g></g></g><g fill="#ffffff" fill-opacity="1"><g transform="translate(299.468375, 25.686699)"><g><path d="M 4.765625 -9 C 6.078125 -9 7.078125 -8.679688 7.765625 -8.046875 C 8.460938 -7.421875 8.8125 -6.476562 8.8125 -5.21875 L 8.8125 0 L 6.84375 0 L 6.84375 -1.078125 C 6.59375 -0.691406 6.226562 -0.394531 5.75 -0.1875 C 5.28125 0.0078125 4.710938 0.109375 4.046875 0.109375 C 3.378906 0.109375 2.796875 0 2.296875 -0.21875 C 1.796875 -0.445312 1.410156 -0.765625 1.140625 -1.171875 C 0.867188 -1.578125 0.734375 -2.035156 0.734375 -2.546875 C 0.734375 -3.347656 1.03125 -3.988281 1.625 -4.46875 C 2.21875 -4.957031 3.15625 -5.203125 4.4375 -5.203125 L 6.734375 -5.203125 L 6.734375 -5.328125 C 6.734375 -5.953125 6.546875 -6.429688 6.171875 -6.765625 C 5.796875 -7.097656 5.242188 -7.265625 4.515625 -7.265625 C 4.015625 -7.265625 3.519531 -7.1875 3.03125 -7.03125 C 2.550781 -6.875 2.144531 -6.65625 1.8125 -6.375 L 1 -7.890625 C 1.46875 -8.242188 2.03125 -8.515625 2.6875 -8.703125 C 3.34375 -8.898438 4.035156 -9 4.765625 -9 Z M 4.484375 -1.40625 C 5.003906 -1.40625 5.46875 -1.519531 5.875 -1.75 C 6.28125 -1.988281 6.566406 -2.332031 6.734375 -2.78125 L 6.734375 -3.8125 L 4.578125 -3.8125 C 3.378906 -3.8125 2.78125 -3.414062 2.78125 -2.625 C 2.78125 -2.25 2.929688 -1.953125 3.234375 -1.734375 C 3.535156 -1.515625 3.953125 -1.40625 4.484375 -1.40625 Z M 6.140625 -10.109375 C 5.859375 -10.109375 5.613281 -10.160156 5.40625 -10.265625 C 5.207031 -10.378906 4.957031 -10.550781 4.65625 -10.78125 C 4.476562 -10.925781 4.332031 -11.03125 4.21875 -11.09375 C 4.101562 -11.164062 3.988281 -11.203125 3.875 -11.203125 C 3.644531 -11.203125 3.453125 -11.113281 3.296875 -10.9375 C 3.148438 -10.757812 3.070312 -10.515625 3.0625 -10.203125 L 1.9375 -10.203125 C 1.945312 -10.878906 2.113281 -11.421875 2.4375 -11.828125 C 2.769531 -12.234375 3.203125 -12.4375 3.734375 -12.4375 C 4.015625 -12.4375 4.257812 -12.378906 4.46875 -12.265625 C 4.675781 -12.160156 4.925781 -12 5.21875 -11.78125 C 5.394531 -11.632812 5.539062 -11.523438 5.65625 -11.453125 C 5.78125 -11.378906 5.894531 -11.34375 6 -11.34375 C 6.238281 -11.34375 6.429688 -11.425781 6.578125 -11.59375 C 6.734375 -11.757812 6.816406 -11.992188 6.828125 -12.296875 L 7.9375 -12.296875 C 7.914062 -11.640625 7.742188 -11.109375 7.421875 -10.703125 C 7.097656 -10.304688 6.671875 -10.109375 6.140625 -10.109375 Z M 6.140625 -10.109375 "></path></g></g></g><g fill="#ffffff" fill-opacity="1"><g transform="translate(309.741483, 25.686699)"><g><path d="M 5.359375 0.109375 C 4.460938 0.109375 3.648438 -0.0820312 2.921875 -0.46875 C 2.203125 -0.851562 1.640625 -1.390625 1.234375 -2.078125 C 0.835938 -2.773438 0.640625 -3.566406 0.640625 -4.453125 C 0.640625 -5.328125 0.835938 -6.109375 1.234375 -6.796875 C 1.640625 -7.484375 2.203125 -8.019531 2.921875 -8.40625 C 3.648438 -8.800781 4.460938 -9 5.359375 -9 C 6.273438 -9 7.09375 -8.800781 7.8125 -8.40625 C 8.53125 -8.019531 9.09375 -7.484375 9.5 -6.796875 C 9.90625 -6.109375 10.109375 -5.328125 10.109375 -4.453125 C 10.109375 -3.566406 9.90625 -2.773438 9.5 -2.078125 C 9.09375 -1.390625 8.53125 -0.851562 7.8125 -0.46875 C 7.09375 -0.0820312 6.273438 0.109375 5.359375 0.109375 Z M 5.359375 -1.671875 C 6.128906 -1.671875 6.765625 -1.925781 7.265625 -2.4375 C 7.765625 -2.945312 8.015625 -3.617188 8.015625 -4.453125 C 8.015625 -5.285156 7.765625 -5.957031 7.265625 -6.46875 C 6.765625 -6.976562 6.128906 -7.234375 5.359375 -7.234375 C 4.597656 -7.234375 3.96875 -6.976562 3.46875 -6.46875 C 2.976562 -5.957031 2.734375 -5.285156 2.734375 -4.453125 C 2.734375 -3.617188 2.976562 -2.945312 3.46875 -2.4375 C 3.96875 -1.925781 4.597656 -1.671875 5.359375 -1.671875 Z M 5.359375 -1.671875 "></path></g></g></g><g fill="#ffffff" fill-opacity="1"><g transform="translate(231.186044, 41.691562)"><g><path d="M 9.53125 -5.96875 L 11.578125 -5.96875 L 11.578125 -1.3125 C 10.972656 -0.832031 10.269531 -0.460938 9.46875 -0.203125 C 8.675781 0.046875 7.859375 0.171875 7.015625 0.171875 C 5.828125 0.171875 4.753906 -0.0820312 3.796875 -0.59375 C 2.835938 -1.113281 2.085938 -1.828125 1.546875 -2.734375 C 1.003906 -3.648438 0.734375 -4.679688 0.734375 -5.828125 C 0.734375 -6.972656 1.003906 -8 1.546875 -8.90625 C 2.085938 -9.820312 2.835938 -10.535156 3.796875 -11.046875 C 4.765625 -11.566406 5.847656 -11.828125 7.046875 -11.828125 C 8.023438 -11.828125 8.910156 -11.664062 9.703125 -11.34375 C 10.503906 -11.019531 11.175781 -10.546875 11.71875 -9.921875 L 10.359375 -8.59375 C 9.472656 -9.476562 8.398438 -9.921875 7.140625 -9.921875 C 6.316406 -9.921875 5.585938 -9.75 4.953125 -9.40625 C 4.316406 -9.0625 3.816406 -8.578125 3.453125 -7.953125 C 3.097656 -7.335938 2.921875 -6.628906 2.921875 -5.828125 C 2.921875 -5.046875 3.097656 -4.34375 3.453125 -3.71875 C 3.816406 -3.101562 4.316406 -2.617188 4.953125 -2.265625 C 5.585938 -1.910156 6.3125 -1.734375 7.125 -1.734375 C 8.039062 -1.734375 8.84375 -1.929688 9.53125 -2.328125 Z M 9.53125 -5.96875 "></path></g></g></g><g fill="#ffffff" fill-opacity="1"><g transform="translate(244.206367, 41.691562)"><g><path d="M 4.765625 -9 C 6.078125 -9 7.078125 -8.679688 7.765625 -8.046875 C 8.460938 -7.421875 8.8125 -6.476562 8.8125 -5.21875 L 8.8125 0 L 6.84375 0 L 6.84375 -1.078125 C 6.59375 -0.691406 6.226562 -0.394531 5.75 -0.1875 C 5.28125 0.0078125 4.710938 0.109375 4.046875 0.109375 C 3.378906 0.109375 2.796875 0 2.296875 -0.21875 C 1.796875 -0.445312 1.410156 -0.765625 1.140625 -1.171875 C 0.867188 -1.578125 0.734375 -2.035156 0.734375 -2.546875 C 0.734375 -3.347656 1.03125 -3.988281 1.625 -4.46875 C 2.21875 -4.957031 3.15625 -5.203125 4.4375 -5.203125 L 6.734375 -5.203125 L 6.734375 -5.328125 C 6.734375 -5.953125 6.546875 -6.429688 6.171875 -6.765625 C 5.796875 -7.097656 5.242188 -7.265625 4.515625 -7.265625 C 4.015625 -7.265625 3.519531 -7.1875 3.03125 -7.03125 C 2.550781 -6.875 2.144531 -6.65625 1.8125 -6.375 L 1 -7.890625 C 1.46875 -8.242188 2.03125 -8.515625 2.6875 -8.703125 C 3.34375 -8.898438 4.035156 -9 4.765625 -9 Z M 4.484375 -1.40625 C 5.003906 -1.40625 5.46875 -1.519531 5.875 -1.75 C 6.28125 -1.988281 6.566406 -2.332031 6.734375 -2.78125 L 6.734375 -3.8125 L 4.578125 -3.8125 C 3.378906 -3.8125 2.78125 -3.414062 2.78125 -2.625 C 2.78125 -2.25 2.929688 -1.953125 3.234375 -1.734375 C 3.535156 -1.515625 3.953125 -1.40625 4.484375 -1.40625 Z M 4.484375 -1.40625 "></path></g></g></g><g fill="#ffffff" fill-opacity="1"><g transform="translate(254.479479, 41.691562)"><g><path d="M 3.34375 -7.59375 C 3.945312 -8.53125 5.003906 -9 6.515625 -9 L 6.515625 -7.015625 C 6.335938 -7.046875 6.175781 -7.0625 6.03125 -7.0625 C 5.21875 -7.0625 4.582031 -6.820312 4.125 -6.34375 C 3.675781 -5.875 3.453125 -5.195312 3.453125 -4.3125 L 3.453125 0 L 1.359375 0 L 1.359375 -8.890625 L 3.34375 -8.890625 Z M 3.34375 -7.59375 "></path></g></g></g><g fill="#ffffff" fill-opacity="1"><g transform="translate(261.639083, 41.691562)"><g><path d="M 4.765625 -9 C 6.078125 -9 7.078125 -8.679688 7.765625 -8.046875 C 8.460938 -7.421875 8.8125 -6.476562 8.8125 -5.21875 L 8.8125 0 L 6.84375 0 L 6.84375 -1.078125 C 6.59375 -0.691406 6.226562 -0.394531 5.75 -0.1875 C 5.28125 0.0078125 4.710938 0.109375 4.046875 0.109375 C 3.378906 0.109375 2.796875 0 2.296875 -0.21875 C 1.796875 -0.445312 1.410156 -0.765625 1.140625 -1.171875 C 0.867188 -1.578125 0.734375 -2.035156 0.734375 -2.546875 C 0.734375 -3.347656 1.03125 -3.988281 1.625 -4.46875 C 2.21875 -4.957031 3.15625 -5.203125 4.4375 -5.203125 L 6.734375 -5.203125 L 6.734375 -5.328125 C 6.734375 -5.953125 6.546875 -6.429688 6.171875 -6.765625 C 5.796875 -7.097656 5.242188 -7.265625 4.515625 -7.265625 C 4.015625 -7.265625 3.519531 -7.1875 3.03125 -7.03125 C 2.550781 -6.875 2.144531 -6.65625 1.8125 -6.375 L 1 -7.890625 C 1.46875 -8.242188 2.03125 -8.515625 2.6875 -8.703125 C 3.34375 -8.898438 4.035156 -9 4.765625 -9 Z M 4.484375 -1.40625 C 5.003906 -1.40625 5.46875 -1.519531 5.875 -1.75 C 6.28125 -1.988281 6.566406 -2.332031 6.734375 -2.78125 L 6.734375 -3.8125 L 4.578125 -3.8125 C 3.378906 -3.8125 2.78125 -3.414062 2.78125 -2.625 C 2.78125 -2.25 2.929688 -1.953125 3.234375 -1.734375 C 3.535156 -1.515625 3.953125 -1.40625 4.484375 -1.40625 Z M 4.484375 -1.40625 "></path></g></g></g><g fill="#ffffff" fill-opacity="1"><g transform="translate(271.912196, 41.691562)"><g><path d="M 6.40625 -9 C 7.53125 -9 8.429688 -8.671875 9.109375 -8.015625 C 9.785156 -7.359375 10.125 -6.382812 10.125 -5.09375 L 10.125 0 L 8.046875 0 L 8.046875 -4.828125 C 8.046875 -5.609375 7.863281 -6.191406 7.5 -6.578125 C 7.132812 -6.972656 6.609375 -7.171875 5.921875 -7.171875 C 5.160156 -7.171875 4.554688 -6.941406 4.109375 -6.484375 C 3.671875 -6.023438 3.453125 -5.363281 3.453125 -4.5 L 3.453125 0 L 1.359375 0 L 1.359375 -8.890625 L 3.34375 -8.890625 L 3.34375 -7.75 C 3.6875 -8.15625 4.117188 -8.460938 4.640625 -8.671875 C 5.171875 -8.890625 5.757812 -9 6.40625 -9 Z M 6.40625 -9 "></path></g></g></g><g fill="#ffffff" fill-opacity="1"><g transform="translate(283.483991, 41.691562)"><g><path d="M 6.71875 -0.484375 C 6.46875 -0.285156 6.164062 -0.132812 5.8125 -0.03125 C 5.46875 0.0625 5.101562 0.109375 4.71875 0.109375 C 3.738281 0.109375 2.984375 -0.144531 2.453125 -0.65625 C 1.921875 -1.164062 1.65625 -1.90625 1.65625 -2.875 L 1.65625 -7.15625 L 0.1875 -7.15625 L 0.1875 -8.828125 L 1.65625 -8.828125 L 1.65625 -10.859375 L 3.734375 -10.859375 L 3.734375 -8.828125 L 6.109375 -8.828125 L 6.109375 -7.15625 L 3.734375 -7.15625 L 3.734375 -2.9375 C 3.734375 -2.5 3.835938 -2.164062 4.046875 -1.9375 C 4.253906 -1.707031 4.5625 -1.59375 4.96875 -1.59375 C 5.425781 -1.59375 5.8125 -1.71875 6.125 -1.96875 Z M 6.71875 -0.484375 "></path></g></g></g><g fill="#ffffff" fill-opacity="1"><g transform="translate(290.710188, 41.691562)"><g><path d="M 1.359375 -8.890625 L 3.453125 -8.890625 L 3.453125 0 L 1.359375 0 Z M 2.40625 -10.359375 C 2.03125 -10.359375 1.710938 -10.476562 1.453125 -10.71875 C 1.203125 -10.957031 1.078125 -11.253906 1.078125 -11.609375 C 1.078125 -11.960938 1.203125 -12.257812 1.453125 -12.5 C 1.710938 -12.738281 2.03125 -12.859375 2.40625 -12.859375 C 2.78125 -12.859375 3.09375 -12.742188 3.34375 -12.515625 C 3.601562 -12.285156 3.734375 -12 3.734375 -11.65625 C 3.734375 -11.289062 3.609375 -10.984375 3.359375 -10.734375 C 3.117188 -10.484375 2.800781 -10.359375 2.40625 -10.359375 Z M 2.40625 -10.359375 "></path></g></g></g><g fill="#ffffff" fill-opacity="1"><g transform="translate(295.688668, 41.691562)"><g><path d="M 10.078125 -12.359375 L 10.078125 0 L 8.078125 0 L 8.078125 -1.15625 C 7.734375 -0.726562 7.304688 -0.410156 6.796875 -0.203125 C 6.296875 0.00390625 5.738281 0.109375 5.125 0.109375 C 4.269531 0.109375 3.5 -0.078125 2.8125 -0.453125 C 2.132812 -0.828125 1.601562 -1.359375 1.21875 -2.046875 C 0.832031 -2.742188 0.640625 -3.546875 0.640625 -4.453125 C 0.640625 -5.347656 0.832031 -6.140625 1.21875 -6.828125 C 1.601562 -7.515625 2.132812 -8.046875 2.8125 -8.421875 C 3.5 -8.804688 4.269531 -9 5.125 -9 C 5.71875 -9 6.257812 -8.894531 6.75 -8.6875 C 7.238281 -8.488281 7.65625 -8.191406 8 -7.796875 L 8 -12.359375 Z M 5.375 -1.671875 C 5.875 -1.671875 6.320312 -1.78125 6.71875 -2 C 7.125 -2.226562 7.441406 -2.550781 7.671875 -2.96875 C 7.910156 -3.394531 8.03125 -3.890625 8.03125 -4.453125 C 8.03125 -5.003906 7.910156 -5.488281 7.671875 -5.90625 C 7.441406 -6.332031 7.125 -6.660156 6.71875 -6.890625 C 6.320312 -7.117188 5.875 -7.234375 5.375 -7.234375 C 4.875 -7.234375 4.425781 -7.117188 4.03125 -6.890625 C 3.632812 -6.660156 3.316406 -6.332031 3.078125 -5.90625 C 2.847656 -5.488281 2.734375 -5.003906 2.734375 -4.453125 C 2.734375 -3.890625 2.847656 -3.394531 3.078125 -2.96875 C 3.316406 -2.550781 3.632812 -2.226562 4.03125 -2 C 4.425781 -1.78125 4.875 -1.671875 5.375 -1.671875 Z M 5.375 -1.671875 "></path></g></g></g><g fill="#ffffff" fill-opacity="1"><g transform="translate(307.29377, 41.691562)"><g><path d="M 4.765625 -9 C 6.078125 -9 7.078125 -8.679688 7.765625 -8.046875 C 8.460938 -7.421875 8.8125 -6.476562 8.8125 -5.21875 L 8.8125 0 L 6.84375 0 L 6.84375 -1.078125 C 6.59375 -0.691406 6.226562 -0.394531 5.75 -0.1875 C 5.28125 0.0078125 4.710938 0.109375 4.046875 0.109375 C 3.378906 0.109375 2.796875 0 2.296875 -0.21875 C 1.796875 -0.445312 1.410156 -0.765625 1.140625 -1.171875 C 0.867188 -1.578125 0.734375 -2.035156 0.734375 -2.546875 C 0.734375 -3.347656 1.03125 -3.988281 1.625 -4.46875 C 2.21875 -4.957031 3.15625 -5.203125 4.4375 -5.203125 L 6.734375 -5.203125 L 6.734375 -5.328125 C 6.734375 -5.953125 6.546875 -6.429688 6.171875 -6.765625 C 5.796875 -7.097656 5.242188 -7.265625 4.515625 -7.265625 C 4.015625 -7.265625 3.519531 -7.1875 3.03125 -7.03125 C 2.550781 -6.875 2.144531 -6.65625 1.8125 -6.375 L 1 -7.890625 C 1.46875 -8.242188 2.03125 -8.515625 2.6875 -8.703125 C 3.34375 -8.898438 4.035156 -9 4.765625 -9 Z M 4.484375 -1.40625 C 5.003906 -1.40625 5.46875 -1.519531 5.875 -1.75 C 6.28125 -1.988281 6.566406 -2.332031 6.734375 -2.78125 L 6.734375 -3.8125 L 4.578125 -3.8125 C 3.378906 -3.8125 2.78125 -3.414062 2.78125 -2.625 C 2.78125 -2.25 2.929688 -1.953125 3.234375 -1.734375 C 3.535156 -1.515625 3.953125 -1.40625 4.484375 -1.40625 Z M 4.484375 -1.40625 "></path></g></g></g><g fill="#ffffff" fill-opacity="1"><g transform="translate(375.052474, 25.686699)"><g><path d="M 6.359375 -11.65625 C 7.367188 -11.65625 8.25 -11.488281 9 -11.15625 C 9.75 -10.820312 10.320312 -10.34375 10.71875 -9.71875 C 11.125 -9.101562 11.328125 -8.367188 11.328125 -7.515625 C 11.328125 -6.671875 11.125 -5.929688 10.71875 -5.296875 C 10.320312 -4.671875 9.75 -4.191406 9 -3.859375 C 8.25 -3.523438 7.367188 -3.359375 6.359375 -3.359375 L 3.734375 -3.359375 L 3.734375 0 L 1.5625 0 L 1.5625 -11.65625 Z M 6.265625 -5.203125 C 7.203125 -5.203125 7.914062 -5.398438 8.40625 -5.796875 C 8.894531 -6.191406 9.140625 -6.765625 9.140625 -7.515625 C 9.140625 -8.253906 8.894531 -8.820312 8.40625 -9.21875 C 7.914062 -9.625 7.203125 -9.828125 6.265625 -9.828125 L 3.734375 -9.828125 L 3.734375 -5.203125 Z M 6.265625 -5.203125 "></path></g></g></g><g fill="#ffffff" fill-opacity="1"><g transform="translate(387.306913, 25.686699)"><g><path d="M 3.34375 -7.59375 C 3.945312 -8.53125 5.003906 -9 6.515625 -9 L 6.515625 -7.015625 C 6.335938 -7.046875 6.175781 -7.0625 6.03125 -7.0625 C 5.21875 -7.0625 4.582031 -6.820312 4.125 -6.34375 C 3.675781 -5.875 3.453125 -5.195312 3.453125 -4.3125 L 3.453125 0 L 1.359375 0 L 1.359375 -8.890625 L 3.34375 -8.890625 Z M 3.34375 -7.59375 "></path></g></g></g><g fill="#ffffff" fill-opacity="1"><g transform="translate(394.466517, 25.686699)"><g><path d="M 1.359375 -8.890625 L 3.453125 -8.890625 L 3.453125 0 L 1.359375 0 Z M 2.40625 -10.359375 C 2.03125 -10.359375 1.710938 -10.476562 1.453125 -10.71875 C 1.203125 -10.957031 1.078125 -11.253906 1.078125 -11.609375 C 1.078125 -11.960938 1.203125 -12.257812 1.453125 -12.5 C 1.710938 -12.738281 2.03125 -12.859375 2.40625 -12.859375 C 2.78125 -12.859375 3.09375 -12.742188 3.34375 -12.515625 C 3.601562 -12.285156 3.734375 -12 3.734375 -11.65625 C 3.734375 -11.289062 3.609375 -10.984375 3.359375 -10.734375 C 3.117188 -10.484375 2.800781 -10.359375 2.40625 -10.359375 Z M 2.40625 -10.359375 "></path></g></g></g><g fill="#ffffff" fill-opacity="1"><g transform="translate(399.444998, 25.686699)"><g><path d="M 9.6875 -8.890625 L 5.875 0 L 3.734375 0 L -0.078125 -8.890625 L 2.078125 -8.890625 L 4.84375 -2.296875 L 7.6875 -8.890625 Z M 9.6875 -8.890625 "></path></g></g></g><g fill="#ffffff" fill-opacity="1"><g transform="translate(409.235272, 25.686699)"><g><path d="M 4.765625 -9 C 6.078125 -9 7.078125 -8.679688 7.765625 -8.046875 C 8.460938 -7.421875 8.8125 -6.476562 8.8125 -5.21875 L 8.8125 0 L 6.84375 0 L 6.84375 -1.078125 C 6.59375 -0.691406 6.226562 -0.394531 5.75 -0.1875 C 5.28125 0.0078125 4.710938 0.109375 4.046875 0.109375 C 3.378906 0.109375 2.796875 0 2.296875 -0.21875 C 1.796875 -0.445312 1.410156 -0.765625 1.140625 -1.171875 C 0.867188 -1.578125 0.734375 -2.035156 0.734375 -2.546875 C 0.734375 -3.347656 1.03125 -3.988281 1.625 -4.46875 C 2.21875 -4.957031 3.15625 -5.203125 4.4375 -5.203125 L 6.734375 -5.203125 L 6.734375 -5.328125 C 6.734375 -5.953125 6.546875 -6.429688 6.171875 -6.765625 C 5.796875 -7.097656 5.242188 -7.265625 4.515625 -7.265625 C 4.015625 -7.265625 3.519531 -7.1875 3.03125 -7.03125 C 2.550781 -6.875 2.144531 -6.65625 1.8125 -6.375 L 1 -7.890625 C 1.46875 -8.242188 2.03125 -8.515625 2.6875 -8.703125 C 3.34375 -8.898438 4.035156 -9 4.765625 -9 Z M 4.484375 -1.40625 C 5.003906 -1.40625 5.46875 -1.519531 5.875 -1.75 C 6.28125 -1.988281 6.566406 -2.332031 6.734375 -2.78125 L 6.734375 -3.8125 L 4.578125 -3.8125 C 3.378906 -3.8125 2.78125 -3.414062 2.78125 -2.625 C 2.78125 -2.25 2.929688 -1.953125 3.234375 -1.734375 C 3.535156 -1.515625 3.953125 -1.40625 4.484375 -1.40625 Z M 4.484375 -1.40625 "></path></g></g></g><g fill="#ffffff" fill-opacity="1"><g transform="translate(419.508384, 25.686699)"><g><path d="M 5.453125 0.109375 C 4.523438 0.109375 3.691406 -0.0820312 2.953125 -0.46875 C 2.222656 -0.851562 1.65625 -1.390625 1.25 -2.078125 C 0.84375 -2.773438 0.640625 -3.566406 0.640625 -4.453125 C 0.640625 -5.328125 0.84375 -6.109375 1.25 -6.796875 C 1.65625 -7.484375 2.222656 -8.019531 2.953125 -8.40625 C 3.679688 -8.800781 4.515625 -9 5.453125 -9 C 6.328125 -9 7.09375 -8.816406 7.75 -8.453125 C 8.414062 -8.097656 8.914062 -7.585938 9.25 -6.921875 L 7.640625 -6 C 7.390625 -6.40625 7.070312 -6.710938 6.6875 -6.921875 C 6.300781 -7.128906 5.882812 -7.234375 5.4375 -7.234375 C 4.65625 -7.234375 4.007812 -6.976562 3.5 -6.46875 C 2.988281 -5.96875 2.734375 -5.296875 2.734375 -4.453125 C 2.734375 -3.609375 2.984375 -2.929688 3.484375 -2.421875 C 3.992188 -1.921875 4.644531 -1.671875 5.4375 -1.671875 C 5.882812 -1.671875 6.300781 -1.769531 6.6875 -1.96875 C 7.070312 -2.175781 7.390625 -2.484375 7.640625 -2.890625 L 9.25 -1.96875 C 8.90625 -1.300781 8.398438 -0.785156 7.734375 -0.421875 C 7.078125 -0.0664062 6.316406 0.109375 5.453125 0.109375 Z M 5.453125 0.109375 "></path></g></g></g><g fill="#ffffff" fill-opacity="1"><g transform="translate(429.348603, 25.686699)"><g><path d="M 1.359375 -8.890625 L 3.453125 -8.890625 L 3.453125 0 L 1.359375 0 Z M 2.40625 -10.359375 C 2.03125 -10.359375 1.710938 -10.476562 1.453125 -10.71875 C 1.203125 -10.957031 1.078125 -11.253906 1.078125 -11.609375 C 1.078125 -11.960938 1.203125 -12.257812 1.453125 -12.5 C 1.710938 -12.738281 2.03125 -12.859375 2.40625 -12.859375 C 2.78125 -12.859375 3.09375 -12.742188 3.34375 -12.515625 C 3.601562 -12.285156 3.734375 -12 3.734375 -11.65625 C 3.734375 -11.289062 3.609375 -10.984375 3.359375 -10.734375 C 3.117188 -10.484375 2.800781 -10.359375 2.40625 -10.359375 Z M 2.40625 -10.359375 "></path></g></g></g><g fill="#ffffff" fill-opacity="1"><g transform="translate(434.327083, 25.686699)"><g><path d="M 10.078125 -12.359375 L 10.078125 0 L 8.078125 0 L 8.078125 -1.15625 C 7.734375 -0.726562 7.304688 -0.410156 6.796875 -0.203125 C 6.296875 0.00390625 5.738281 0.109375 5.125 0.109375 C 4.269531 0.109375 3.5 -0.078125 2.8125 -0.453125 C 2.132812 -0.828125 1.601562 -1.359375 1.21875 -2.046875 C 0.832031 -2.742188 0.640625 -3.546875 0.640625 -4.453125 C 0.640625 -5.347656 0.832031 -6.140625 1.21875 -6.828125 C 1.601562 -7.515625 2.132812 -8.046875 2.8125 -8.421875 C 3.5 -8.804688 4.269531 -9 5.125 -9 C 5.71875 -9 6.257812 -8.894531 6.75 -8.6875 C 7.238281 -8.488281 7.65625 -8.191406 8 -7.796875 L 8 -12.359375 Z M 5.375 -1.671875 C 5.875 -1.671875 6.320312 -1.78125 6.71875 -2 C 7.125 -2.226562 7.441406 -2.550781 7.671875 -2.96875 C 7.910156 -3.394531 8.03125 -3.890625 8.03125 -4.453125 C 8.03125 -5.003906 7.910156 -5.488281 7.671875 -5.90625 C 7.441406 -6.332031 7.125 -6.660156 6.71875 -6.890625 C 6.320312 -7.117188 5.875 -7.234375 5.375 -7.234375 C 4.875 -7.234375 4.425781 -7.117188 4.03125 -6.890625 C 3.632812 -6.660156 3.316406 -6.332031 3.078125 -5.90625 C 2.847656 -5.488281 2.734375 -5.003906 2.734375 -4.453125 C 2.734375 -3.890625 2.847656 -3.394531 3.078125 -2.96875 C 3.316406 -2.550781 3.632812 -2.226562 4.03125 -2 C 4.425781 -1.78125 4.875 -1.671875 5.375 -1.671875 Z M 5.375 -1.671875 "></path></g></g></g><g fill="#ffffff" fill-opacity="1"><g transform="translate(445.932178, 25.686699)"><g><path d="M 4.765625 -9 C 6.078125 -9 7.078125 -8.679688 7.765625 -8.046875 C 8.460938 -7.421875 8.8125 -6.476562 8.8125 -5.21875 L 8.8125 0 L 6.84375 0 L 6.84375 -1.078125 C 6.59375 -0.691406 6.226562 -0.394531 5.75 -0.1875 C 5.28125 0.0078125 4.710938 0.109375 4.046875 0.109375 C 3.378906 0.109375 2.796875 0 2.296875 -0.21875 C 1.796875 -0.445312 1.410156 -0.765625 1.140625 -1.171875 C 0.867188 -1.578125 0.734375 -2.035156 0.734375 -2.546875 C 0.734375 -3.347656 1.03125 -3.988281 1.625 -4.46875 C 2.21875 -4.957031 3.15625 -5.203125 4.4375 -5.203125 L 6.734375 -5.203125 L 6.734375 -5.328125 C 6.734375 -5.953125 6.546875 -6.429688 6.171875 -6.765625 C 5.796875 -7.097656 5.242188 -7.265625 4.515625 -7.265625 C 4.015625 -7.265625 3.519531 -7.1875 3.03125 -7.03125 C 2.550781 -6.875 2.144531 -6.65625 1.8125 -6.375 L 1 -7.890625 C 1.46875 -8.242188 2.03125 -8.515625 2.6875 -8.703125 C 3.34375 -8.898438 4.035156 -9 4.765625 -9 Z M 4.484375 -1.40625 C 5.003906 -1.40625 5.46875 -1.519531 5.875 -1.75 C 6.28125 -1.988281 6.566406 -2.332031 6.734375 -2.78125 L 6.734375 -3.8125 L 4.578125 -3.8125 C 3.378906 -3.8125 2.78125 -3.414062 2.78125 -2.625 C 2.78125 -2.25 2.929688 -1.953125 3.234375 -1.734375 C 3.535156 -1.515625 3.953125 -1.40625 4.484375 -1.40625 Z M 4.484375 -1.40625 "></path></g></g></g><g fill="#ffffff" fill-opacity="1"><g transform="translate(456.205286, 25.686699)"><g><path d="M 10.078125 -12.359375 L 10.078125 0 L 8.078125 0 L 8.078125 -1.15625 C 7.734375 -0.726562 7.304688 -0.410156 6.796875 -0.203125 C 6.296875 0.00390625 5.738281 0.109375 5.125 0.109375 C 4.269531 0.109375 3.5 -0.078125 2.8125 -0.453125 C 2.132812 -0.828125 1.601562 -1.359375 1.21875 -2.046875 C 0.832031 -2.742188 0.640625 -3.546875 0.640625 -4.453125 C 0.640625 -5.347656 0.832031 -6.140625 1.21875 -6.828125 C 1.601562 -7.515625 2.132812 -8.046875 2.8125 -8.421875 C 3.5 -8.804688 4.269531 -9 5.125 -9 C 5.71875 -9 6.257812 -8.894531 6.75 -8.6875 C 7.238281 -8.488281 7.65625 -8.191406 8 -7.796875 L 8 -12.359375 Z M 5.375 -1.671875 C 5.875 -1.671875 6.320312 -1.78125 6.71875 -2 C 7.125 -2.226562 7.441406 -2.550781 7.671875 -2.96875 C 7.910156 -3.394531 8.03125 -3.890625 8.03125 -4.453125 C 8.03125 -5.003906 7.910156 -5.488281 7.671875 -5.90625 C 7.441406 -6.332031 7.125 -6.660156 6.71875 -6.890625 C 6.320312 -7.117188 5.875 -7.234375 5.375 -7.234375 C 4.875 -7.234375 4.425781 -7.117188 4.03125 -6.890625 C 3.632812 -6.660156 3.316406 -6.332031 3.078125 -5.90625 C 2.847656 -5.488281 2.734375 -5.003906 2.734375 -4.453125 C 2.734375 -3.890625 2.847656 -3.394531 3.078125 -2.96875 C 3.316406 -2.550781 3.632812 -2.226562 4.03125 -2 C 4.425781 -1.78125 4.875 -1.671875 5.375 -1.671875 Z M 5.375 -1.671875 "></path></g></g></g><g fill="#ffffff" fill-opacity="1"><g transform="translate(467.810381, 25.686699)"><g><path d="M 9.734375 -4.390625 C 9.734375 -4.253906 9.71875 -4.050781 9.6875 -3.78125 L 2.71875 -3.78125 C 2.832031 -3.125 3.148438 -2.601562 3.671875 -2.21875 C 4.191406 -1.84375 4.832031 -1.65625 5.59375 -1.65625 C 6.570312 -1.65625 7.378906 -1.972656 8.015625 -2.609375 L 9.125 -1.328125 C 8.726562 -0.847656 8.222656 -0.488281 7.609375 -0.25 C 7.003906 -0.0078125 6.316406 0.109375 5.546875 0.109375 C 4.566406 0.109375 3.703125 -0.0820312 2.953125 -0.46875 C 2.210938 -0.851562 1.640625 -1.390625 1.234375 -2.078125 C 0.835938 -2.773438 0.640625 -3.566406 0.640625 -4.453125 C 0.640625 -5.316406 0.832031 -6.09375 1.21875 -6.78125 C 1.613281 -7.476562 2.160156 -8.019531 2.859375 -8.40625 C 3.566406 -8.800781 4.359375 -9 5.234375 -9 C 6.097656 -9 6.867188 -8.804688 7.546875 -8.421875 C 8.234375 -8.035156 8.769531 -7.492188 9.15625 -6.796875 C 9.539062 -6.109375 9.734375 -5.304688 9.734375 -4.390625 Z M 5.234375 -7.328125 C 4.566406 -7.328125 4 -7.128906 3.53125 -6.734375 C 3.070312 -6.335938 2.796875 -5.8125 2.703125 -5.15625 L 7.75 -5.15625 C 7.65625 -5.800781 7.378906 -6.320312 6.921875 -6.71875 C 6.472656 -7.125 5.910156 -7.328125 5.234375 -7.328125 Z M 5.234375 -7.328125 "></path></g></g></g><g fill="#ffffff" fill-opacity="1"><g transform="translate(375.052474, 41.691562)"><g><path d="M 6.359375 -11.65625 C 7.367188 -11.65625 8.25 -11.488281 9 -11.15625 C 9.75 -10.820312 10.320312 -10.34375 10.71875 -9.71875 C 11.125 -9.101562 11.328125 -8.367188 11.328125 -7.515625 C 11.328125 -6.671875 11.125 -5.929688 10.71875 -5.296875 C 10.320312 -4.671875 9.75 -4.191406 9 -3.859375 C 8.25 -3.523438 7.367188 -3.359375 6.359375 -3.359375 L 3.734375 -3.359375 L 3.734375 0 L 1.5625 0 L 1.5625 -11.65625 Z M 6.265625 -5.203125 C 7.203125 -5.203125 7.914062 -5.398438 8.40625 -5.796875 C 8.894531 -6.191406 9.140625 -6.765625 9.140625 -7.515625 C 9.140625 -8.253906 8.894531 -8.820312 8.40625 -9.21875 C 7.914062 -9.625 7.203125 -9.828125 6.265625 -9.828125 L 3.734375 -9.828125 L 3.734375 -5.203125 Z M 6.265625 -5.203125 "></path></g></g></g><g fill="#ffffff" fill-opacity="1"><g transform="translate(387.306914, 41.691562)"><g><path d="M 3.34375 -7.59375 C 3.945312 -8.53125 5.003906 -9 6.515625 -9 L 6.515625 -7.015625 C 6.335938 -7.046875 6.175781 -7.0625 6.03125 -7.0625 C 5.21875 -7.0625 4.582031 -6.820312 4.125 -6.34375 C 3.675781 -5.875 3.453125 -5.195312 3.453125 -4.3125 L 3.453125 0 L 1.359375 0 L 1.359375 -8.890625 L 3.34375 -8.890625 Z M 3.34375 -7.59375 "></path></g></g></g><g fill="#ffffff" fill-opacity="1"><g transform="translate(394.466518, 41.691562)"><g><path d="M 9.734375 -4.390625 C 9.734375 -4.253906 9.71875 -4.050781 9.6875 -3.78125 L 2.71875 -3.78125 C 2.832031 -3.125 3.148438 -2.601562 3.671875 -2.21875 C 4.191406 -1.84375 4.832031 -1.65625 5.59375 -1.65625 C 6.570312 -1.65625 7.378906 -1.972656 8.015625 -2.609375 L 9.125 -1.328125 C 8.726562 -0.847656 8.222656 -0.488281 7.609375 -0.25 C 7.003906 -0.0078125 6.316406 0.109375 5.546875 0.109375 C 4.566406 0.109375 3.703125 -0.0820312 2.953125 -0.46875 C 2.210938 -0.851562 1.640625 -1.390625 1.234375 -2.078125 C 0.835938 -2.773438 0.640625 -3.566406 0.640625 -4.453125 C 0.640625 -5.316406 0.832031 -6.09375 1.21875 -6.78125 C 1.613281 -7.476562 2.160156 -8.019531 2.859375 -8.40625 C 3.566406 -8.800781 4.359375 -9 5.234375 -9 C 6.097656 -9 6.867188 -8.804688 7.546875 -8.421875 C 8.234375 -8.035156 8.769531 -7.492188 9.15625 -6.796875 C 9.539062 -6.109375 9.734375 -5.304688 9.734375 -4.390625 Z M 5.234375 -7.328125 C 4.566406 -7.328125 4 -7.128906 3.53125 -6.734375 C 3.070312 -6.335938 2.796875 -5.8125 2.703125 -5.15625 L 7.75 -5.15625 C 7.65625 -5.800781 7.378906 -6.320312 6.921875 -6.71875 C 6.472656 -7.125 5.910156 -7.328125 5.234375 -7.328125 Z M 5.234375 -7.328125 "></path></g></g></g><g fill="#ffffff" fill-opacity="1"><g transform="translate(404.989385, 41.691562)"><g><path d="M 6.71875 -0.484375 C 6.46875 -0.285156 6.164062 -0.132812 5.8125 -0.03125 C 5.46875 0.0625 5.101562 0.109375 4.71875 0.109375 C 3.738281 0.109375 2.984375 -0.144531 2.453125 -0.65625 C 1.921875 -1.164062 1.65625 -1.90625 1.65625 -2.875 L 1.65625 -7.15625 L 0.1875 -7.15625 L 0.1875 -8.828125 L 1.65625 -8.828125 L 1.65625 -10.859375 L 3.734375 -10.859375 L 3.734375 -8.828125 L 6.109375 -8.828125 L 6.109375 -7.15625 L 3.734375 -7.15625 L 3.734375 -2.9375 C 3.734375 -2.5 3.835938 -2.164062 4.046875 -1.9375 C 4.253906 -1.707031 4.5625 -1.59375 4.96875 -1.59375 C 5.425781 -1.59375 5.8125 -1.71875 6.125 -1.96875 Z M 6.71875 -0.484375 "></path></g></g></g><g fill="#ffffff" fill-opacity="1"><g transform="translate(412.215583, 41.691562)"><g><path d="M 9.734375 -4.390625 C 9.734375 -4.253906 9.71875 -4.050781 9.6875 -3.78125 L 2.71875 -3.78125 C 2.832031 -3.125 3.148438 -2.601562 3.671875 -2.21875 C 4.191406 -1.84375 4.832031 -1.65625 5.59375 -1.65625 C 6.570312 -1.65625 7.378906 -1.972656 8.015625 -2.609375 L 9.125 -1.328125 C 8.726562 -0.847656 8.222656 -0.488281 7.609375 -0.25 C 7.003906 -0.0078125 6.316406 0.109375 5.546875 0.109375 C 4.566406 0.109375 3.703125 -0.0820312 2.953125 -0.46875 C 2.210938 -0.851562 1.640625 -1.390625 1.234375 -2.078125 C 0.835938 -2.773438 0.640625 -3.566406 0.640625 -4.453125 C 0.640625 -5.316406 0.832031 -6.09375 1.21875 -6.78125 C 1.613281 -7.476562 2.160156 -8.019531 2.859375 -8.40625 C 3.566406 -8.800781 4.359375 -9 5.234375 -9 C 6.097656 -9 6.867188 -8.804688 7.546875 -8.421875 C 8.234375 -8.035156 8.769531 -7.492188 9.15625 -6.796875 C 9.539062 -6.109375 9.734375 -5.304688 9.734375 -4.390625 Z M 5.234375 -7.328125 C 4.566406 -7.328125 4 -7.128906 3.53125 -6.734375 C 3.070312 -6.335938 2.796875 -5.8125 2.703125 -5.15625 L 7.75 -5.15625 C 7.65625 -5.800781 7.378906 -6.320312 6.921875 -6.71875 C 6.472656 -7.125 5.910156 -7.328125 5.234375 -7.328125 Z M 5.234375 -7.328125 "></path></g></g></g><g fill="#ffffff" fill-opacity="1"><g transform="translate(422.73845, 41.691562)"><g><path d="M 10.1875 -8.890625 L 10.1875 -1.34375 C 10.1875 1.78125 8.585938 3.34375 5.390625 3.34375 C 4.535156 3.34375 3.722656 3.234375 2.953125 3.015625 C 2.191406 2.804688 1.5625 2.492188 1.0625 2.078125 L 2 0.515625 C 2.382812 0.835938 2.875 1.09375 3.46875 1.28125 C 4.0625 1.476562 4.664062 1.578125 5.28125 1.578125 C 6.257812 1.578125 6.972656 1.351562 7.421875 0.90625 C 7.878906 0.46875 8.109375 -0.203125 8.109375 -1.109375 L 8.109375 -1.578125 C 7.753906 -1.191406 7.320312 -0.898438 6.8125 -0.703125 C 6.300781 -0.503906 5.738281 -0.40625 5.125 -0.40625 C 4.28125 -0.40625 3.515625 -0.582031 2.828125 -0.9375 C 2.148438 -1.300781 1.613281 -1.8125 1.21875 -2.46875 C 0.832031 -3.125 0.640625 -3.875 0.640625 -4.71875 C 0.640625 -5.5625 0.832031 -6.304688 1.21875 -6.953125 C 1.613281 -7.597656 2.148438 -8.097656 2.828125 -8.453125 C 3.515625 -8.816406 4.28125 -9 5.125 -9 C 5.769531 -9 6.351562 -8.890625 6.875 -8.671875 C 7.40625 -8.460938 7.851562 -8.144531 8.21875 -7.71875 L 8.21875 -8.890625 Z M 5.453125 -2.171875 C 6.234375 -2.171875 6.875 -2.40625 7.375 -2.875 C 7.882812 -3.34375 8.140625 -3.957031 8.140625 -4.71875 C 8.140625 -5.457031 7.882812 -6.0625 7.375 -6.53125 C 6.875 -7 6.234375 -7.234375 5.453125 -7.234375 C 4.648438 -7.234375 3.992188 -7 3.484375 -6.53125 C 2.984375 -6.0625 2.734375 -5.457031 2.734375 -4.71875 C 2.734375 -3.957031 2.984375 -3.34375 3.484375 -2.875 C 3.992188 -2.40625 4.648438 -2.171875 5.453125 -2.171875 Z M 5.453125 -2.171875 "></path></g></g></g><g fill="#ffffff" fill-opacity="1"><g transform="translate(434.46009, 41.691562)"><g><path d="M 1.359375 -8.890625 L 3.453125 -8.890625 L 3.453125 0 L 1.359375 0 Z M 2.40625 -10.359375 C 2.03125 -10.359375 1.710938 -10.476562 1.453125 -10.71875 C 1.203125 -10.957031 1.078125 -11.253906 1.078125 -11.609375 C 1.078125 -11.960938 1.203125 -12.257812 1.453125 -12.5 C 1.710938 -12.738281 2.03125 -12.859375 2.40625 -12.859375 C 2.78125 -12.859375 3.09375 -12.742188 3.34375 -12.515625 C 3.601562 -12.285156 3.734375 -12 3.734375 -11.65625 C 3.734375 -11.289062 3.609375 -10.984375 3.359375 -10.734375 C 3.117188 -10.484375 2.800781 -10.359375 2.40625 -10.359375 Z M 2.40625 -10.359375 "></path></g></g></g><g fill="#ffffff" fill-opacity="1"><g transform="translate(439.43857, 41.691562)"><g><path d="M 10.078125 -12.359375 L 10.078125 0 L 8.078125 0 L 8.078125 -1.15625 C 7.734375 -0.726562 7.304688 -0.410156 6.796875 -0.203125 C 6.296875 0.00390625 5.738281 0.109375 5.125 0.109375 C 4.269531 0.109375 3.5 -0.078125 2.8125 -0.453125 C 2.132812 -0.828125 1.601562 -1.359375 1.21875 -2.046875 C 0.832031 -2.742188 0.640625 -3.546875 0.640625 -4.453125 C 0.640625 -5.347656 0.832031 -6.140625 1.21875 -6.828125 C 1.601562 -7.515625 2.132812 -8.046875 2.8125 -8.421875 C 3.5 -8.804688 4.269531 -9 5.125 -9 C 5.71875 -9 6.257812 -8.894531 6.75 -8.6875 C 7.238281 -8.488281 7.65625 -8.191406 8 -7.796875 L 8 -12.359375 Z M 5.375 -1.671875 C 5.875 -1.671875 6.320312 -1.78125 6.71875 -2 C 7.125 -2.226562 7.441406 -2.550781 7.671875 -2.96875 C 7.910156 -3.394531 8.03125 -3.890625 8.03125 -4.453125 C 8.03125 -5.003906 7.910156 -5.488281 7.671875 -5.90625 C 7.441406 -6.332031 7.125 -6.660156 6.71875 -6.890625 C 6.320312 -7.117188 5.875 -7.234375 5.375 -7.234375 C 4.875 -7.234375 4.425781 -7.117188 4.03125 -6.890625 C 3.632812 -6.660156 3.316406 -6.332031 3.078125 -5.90625 C 2.847656 -5.488281 2.734375 -5.003906 2.734375 -4.453125 C 2.734375 -3.890625 2.847656 -3.394531 3.078125 -2.96875 C 3.316406 -2.550781 3.632812 -2.226562 4.03125 -2 C 4.425781 -1.78125 4.875 -1.671875 5.375 -1.671875 Z M 5.375 -1.671875 "></path></g></g></g><g fill="#ffffff" fill-opacity="1"><g transform="translate(451.043671, 41.691562)"><g><path d="M 4.765625 -9 C 6.078125 -9 7.078125 -8.679688 7.765625 -8.046875 C 8.460938 -7.421875 8.8125 -6.476562 8.8125 -5.21875 L 8.8125 0 L 6.84375 0 L 6.84375 -1.078125 C 6.59375 -0.691406 6.226562 -0.394531 5.75 -0.1875 C 5.28125 0.0078125 4.710938 0.109375 4.046875 0.109375 C 3.378906 0.109375 2.796875 0 2.296875 -0.21875 C 1.796875 -0.445312 1.410156 -0.765625 1.140625 -1.171875 C 0.867188 -1.578125 0.734375 -2.035156 0.734375 -2.546875 C 0.734375 -3.347656 1.03125 -3.988281 1.625 -4.46875 C 2.21875 -4.957031 3.15625 -5.203125 4.4375 -5.203125 L 6.734375 -5.203125 L 6.734375 -5.328125 C 6.734375 -5.953125 6.546875 -6.429688 6.171875 -6.765625 C 5.796875 -7.097656 5.242188 -7.265625 4.515625 -7.265625 C 4.015625 -7.265625 3.519531 -7.1875 3.03125 -7.03125 C 2.550781 -6.875 2.144531 -6.65625 1.8125 -6.375 L 1 -7.890625 C 1.46875 -8.242188 2.03125 -8.515625 2.6875 -8.703125 C 3.34375 -8.898438 4.035156 -9 4.765625 -9 Z M 4.484375 -1.40625 C 5.003906 -1.40625 5.46875 -1.519531 5.875 -1.75 C 6.28125 -1.988281 6.566406 -2.332031 6.734375 -2.78125 L 6.734375 -3.8125 L 4.578125 -3.8125 C 3.378906 -3.8125 2.78125 -3.414062 2.78125 -2.625 C 2.78125 -2.25 2.929688 -1.953125 3.234375 -1.734375 C 3.535156 -1.515625 3.953125 -1.40625 4.484375 -1.40625 Z M 4.484375 -1.40625 "></path></g></g></g></svg> 